<svg xmlns="http://www.w3.org/2000/svg" xmlns:xlink="http://www.w3.org/1999/xlink" width="500" zoomAndPan="magnify" viewBox="0 0 375 374.999991" height="500" preserveAspectRatio="xMidYMid meet" version="1.0"><defs><clipPath id="f9b44228de"><path d="M 187.5 0 C 83.945312 0 0 83.945312 0 187.5 C 0 291.054688 83.945312 375 187.5 375 C 291.054688 375 375 291.054688 375 187.5 C 375 83.945312 291.054688 0 187.5 0 Z M 187.5 0 " clip-rule="nonzero"/></clipPath><clipPath id="badcc699ca"><path d="M 89.765625 61.128906 L 295.265625 61.128906 L 295.265625 313.878906 L 89.765625 313.878906 Z M 89.765625 61.128906 " clip-rule="nonzero"/></clipPath></defs><rect x="-37.5" width="450" fill="#ffffff" y="-37.499999" height="449.999989" fill-opacity="1"/><rect x="-37.5" width="450" fill="#ffffff" y="-37.499999" height="449.999989" fill-opacity="1"/><g clip-path="url(#f9b44228de)"><rect x="-37.5" width="450" fill="#222b35" y="-37.499999" height="449.999989" fill-opacity="1"/></g><g clip-path="url(#badcc699ca)"><path fill="#ffffff" d="M 292.808594 126.621094 L 229.625 63.4375 C 228.140625 61.96875 226.132812 61.132812 224.03125 61.132812 L 160.847656 61.132812 C 147.785156 61.132812 137.15625 71.761719 137.15625 84.824219 L 137.15625 124.316406 L 113.460938 124.316406 C 100.398438 124.316406 89.765625 134.945312 89.765625 148.007812 L 89.765625 290.171875 C 89.765625 303.234375 100.398438 313.867188 113.460938 313.867188 L 224.03125 313.867188 C 237.097656 313.867188 247.726562 303.234375 247.726562 290.171875 L 247.726562 250.683594 L 271.421875 250.683594 C 284.484375 250.683594 295.113281 240.050781 295.113281 226.988281 L 295.113281 132.214844 C 295.113281 130.113281 294.277344 128.105469 292.808594 126.621094 Z M 231.929688 88.09375 L 268.152344 124.316406 L 231.929688 124.316406 Z M 231.929688 290.171875 C 231.929688 294.515625 228.378906 298.070312 224.03125 298.070312 L 113.460938 298.070312 C 109.101562 298.070312 105.5625 294.515625 105.5625 290.171875 L 105.5625 148.007812 C 105.5625 143.648438 109.101562 140.109375 113.460938 140.109375 L 168.746094 140.109375 L 168.746094 187.5 C 168.746094 196.203125 175.839844 203.296875 184.542969 203.296875 L 231.929688 203.296875 Z M 184.542969 187.5 L 184.542969 151.277344 L 220.761719 187.5 Z M 279.320312 226.988281 C 279.320312 231.332031 275.765625 234.886719 271.421875 234.886719 L 247.726562 234.886719 L 247.726562 195.398438 C 247.726562 193.296875 246.890625 191.289062 245.421875 189.804688 L 182.238281 126.621094 C 180.753906 125.152344 178.746094 124.316406 176.644531 124.316406 L 152.953125 124.316406 L 152.953125 84.824219 C 152.953125 80.464844 156.488281 76.925781 160.847656 76.925781 L 216.136719 76.925781 L 216.136719 124.316406 C 216.136719 133.019531 223.210938 140.109375 231.929688 140.109375 L 279.320312 140.109375 Z M 279.320312 226.988281 " fill-opacity="1" fill-rule="nonzero"/></g></svg>