<svg width="18" height="18" viewBox="0 0 18 18" fill="none" xmlns="http://www.w3.org/2000/svg">
<g clip-path="url(#clip0_956_18)">
<path fill-rule="evenodd" clip-rule="evenodd" d="M9.79293 11.1686V0.792938C9.79293 0.582937 9.71137 0.381375 9.56137 0.231375C9.41137 0.0856875 9.20999 0 8.99999 0C8.78999 0 8.58862 0.0856875 8.43862 0.231375C8.28862 0.381375 8.20706 0.582937 8.20706 0.792938V11.1686C8.20706 11.1686 6.69431 9.65569 5.84999 8.81137C5.69999 8.66138 5.49862 8.58 5.28862 8.58C5.07862 8.58 4.87706 8.66138 4.72706 8.81137C4.41862 9.12 4.41862 9.62138 4.72706 9.93L8.46862 13.6714C8.60999 13.8129 8.79862 13.89 8.99999 13.89C9.20137 13.89 9.38999 13.8129 9.53137 13.6714L13.2729 9.93C13.5814 9.62138 13.5814 9.12 13.2729 8.81137C13.1229 8.66138 12.9214 8.58 12.7114 8.58C12.5014 8.58 12.3 8.66138 12.15 8.81137C11.3014 9.65569 9.79293 11.1686 9.79293 11.1686Z" fill="#222B35"/>
<path fill-rule="evenodd" clip-rule="evenodd" d="M0 16.5C0 16.8986 0.158625 17.28 0.441375 17.5586C0.724312 17.8414 1.10569 18 1.5 18H16.5C16.8986 18 17.28 17.8414 17.5586 17.5586C17.8414 17.2757 18 16.8943 18 16.5V11.9614C18 11.5243 17.6443 11.1686 17.2071 11.1686C16.9971 11.1686 16.7957 11.2543 16.6457 11.4C16.4957 11.55 16.4143 11.7514 16.4143 11.9614V15.6686C16.4143 16.0843 16.08 16.4186 15.6643 16.4186H2.33569C1.92 16.4186 1.58569 16.0843 1.58569 15.6686V11.9614C1.58569 11.7514 1.5 11.55 1.35431 11.4C1.20431 11.25 1.00294 11.1686 0.792938 11.1686C0.355687 11.1686 0 11.5243 0 11.9614V16.5Z" fill="#222B35"/>
</g>
<defs>
<clipPath id="clip0_956_18">
<rect width="18" height="18" fill="white"/>
</clipPath>
</defs>
</svg>
