<svg xmlns="http://www.w3.org/2000/svg" xmlns:xlink="http://www.w3.org/1999/xlink" width="500" zoomAndPan="magnify" viewBox="0 0 375 374.999991" height="500" preserveAspectRatio="xMidYMid meet" version="1.0"><rect x="-37.5" width="450" fill="#ffffff" y="-37.499999" height="449.999989" fill-opacity="1"/><rect x="-37.5" width="450" fill="#ffffff" y="-37.499999" height="449.999989" fill-opacity="1"/><path fill="#222b35" d="M 187.5 0 C 184.429688 0 181.363281 0.0742188 178.300781 0.226562 C 175.234375 0.375 172.175781 0.601562 169.121094 0.902344 C 166.066406 1.203125 163.023438 1.578125 159.988281 2.03125 C 156.953125 2.480469 153.929688 3.003906 150.921875 3.601562 C 147.910156 4.203125 144.917969 4.875 141.941406 5.617188 C 138.964844 6.363281 136.007812 7.183594 133.070312 8.074219 C 130.136719 8.964844 127.222656 9.925781 124.332031 10.960938 C 121.445312 11.996094 118.582031 13.097656 115.746094 14.273438 C 112.910156 15.445312 110.105469 16.691406 107.332031 18.003906 C 104.558594 19.3125 101.820312 20.691406 99.113281 22.140625 C 96.40625 23.585938 93.738281 25.097656 91.105469 26.675781 C 88.472656 28.253906 85.882812 29.894531 83.332031 31.597656 C 80.777344 33.304688 78.269531 35.070312 75.804688 36.898438 C 73.339844 38.726562 70.921875 40.613281 68.550781 42.558594 C 66.179688 44.507812 63.855469 46.511719 61.582031 48.570312 C 59.308594 50.632812 57.085938 52.746094 54.917969 54.917969 C 52.746094 57.085938 50.632812 59.308594 48.570312 61.582031 C 46.511719 63.855469 44.507812 66.179688 42.558594 68.550781 C 40.613281 70.921875 38.726562 73.339844 36.898438 75.804688 C 35.070312 78.269531 33.304688 80.777344 31.597656 83.332031 C 29.894531 85.882812 28.253906 88.472656 26.675781 91.105469 C 25.097656 93.738281 23.585938 96.40625 22.140625 99.113281 C 20.691406 101.820312 19.3125 104.558594 18.003906 107.332031 C 16.691406 110.105469 15.445312 112.910156 14.273438 115.746094 C 13.097656 118.582031 11.996094 121.445312 10.960938 124.332031 C 9.925781 127.222656 8.964844 130.136719 8.074219 133.070312 C 7.183594 136.007812 6.363281 138.964844 5.621094 141.941406 C 4.875 144.917969 4.203125 147.910156 3.601562 150.921875 C 3.003906 153.929688 2.480469 156.953125 2.03125 159.988281 C 1.578125 163.023438 1.203125 166.066406 0.902344 169.121094 C 0.601562 172.175781 0.375 175.234375 0.226562 178.300781 C 0.0742188 181.363281 0 184.429688 0 187.5 C 0 190.570312 0.0742188 193.636719 0.226562 196.699219 C 0.375 199.765625 0.601562 202.824219 0.902344 205.878906 C 1.203125 208.933594 1.578125 211.976562 2.03125 215.011719 C 2.480469 218.046875 3.003906 221.070312 3.601562 224.078125 C 4.203125 227.089844 4.875 230.082031 5.621094 233.058594 C 6.363281 236.035156 7.183594 238.992188 8.074219 241.929688 C 8.964844 244.863281 9.925781 247.777344 10.960938 250.667969 C 11.996094 253.554688 13.097656 256.417969 14.273438 259.253906 C 15.445312 262.089844 16.691406 264.894531 18.003906 267.667969 C 19.3125 270.441406 20.691406 273.179688 22.140625 275.886719 C 23.585938 278.59375 25.097656 281.261719 26.675781 283.894531 C 28.253906 286.527344 29.894531 289.117188 31.597656 291.667969 C 33.304688 294.222656 35.070312 296.730469 36.898438 299.195312 C 38.726562 301.660156 40.613281 304.078125 42.558594 306.449219 C 44.507812 308.820312 46.511719 311.144531 48.570312 313.417969 C 50.632812 315.691406 52.746094 317.914062 54.917969 320.082031 C 57.085938 322.253906 59.308594 324.367188 61.582031 326.429688 C 63.855469 328.488281 66.179688 330.492188 68.550781 332.441406 C 70.921875 334.386719 73.339844 336.273438 75.804688 338.101562 C 78.269531 339.929688 80.777344 341.695312 83.332031 343.402344 C 85.882812 345.105469 88.472656 346.746094 91.105469 348.324219 C 93.738281 349.902344 96.40625 351.414062 99.113281 352.859375 C 101.820312 354.308594 104.558594 355.6875 107.332031 356.996094 C 110.105469 358.308594 112.910156 359.554688 115.746094 360.726562 C 118.582031 361.902344 121.445312 363.003906 124.332031 364.039062 C 127.222656 365.074219 130.136719 366.035156 133.070312 366.925781 C 136.007812 367.816406 138.964844 368.636719 141.941406 369.378906 C 144.917969 370.125 147.910156 370.796875 150.921875 371.398438 C 153.929688 371.996094 156.953125 372.519531 159.988281 372.96875 C 163.023438 373.421875 166.066406 373.796875 169.121094 374.097656 C 172.175781 374.398438 175.234375 374.625 178.300781 374.773438 C 181.363281 374.925781 184.429688 375 187.5 375 C 190.570312 375 193.636719 374.925781 196.699219 374.773438 C 199.765625 374.625 202.824219 374.398438 205.878906 374.097656 C 208.933594 373.796875 211.976562 373.421875 215.011719 372.96875 C 218.046875 372.519531 221.070312 371.996094 224.078125 371.398438 C 227.089844 370.796875 230.082031 370.125 233.058594 369.378906 C 236.035156 368.636719 238.992188 367.816406 241.929688 366.925781 C 244.863281 366.035156 247.777344 365.074219 250.667969 364.039062 C 253.554688 363.003906 256.417969 361.902344 259.253906 360.726562 C 262.089844 359.554688 264.894531 358.308594 267.667969 356.996094 C 270.441406 355.6875 273.179688 354.308594 275.886719 352.859375 C 278.59375 351.414062 281.261719 349.902344 283.894531 348.324219 C 286.527344 346.746094 289.117188 345.105469 291.667969 343.402344 C 294.222656 341.695312 296.730469 339.929688 299.195312 338.101562 C 301.660156 336.273438 304.078125 334.386719 306.449219 332.441406 C 308.820312 330.492188 311.144531 328.488281 313.417969 326.429688 C 315.691406 324.367188 317.914062 322.253906 320.082031 320.082031 C 322.253906 317.914062 324.367188 315.691406 326.429688 313.417969 C 328.488281 311.144531 330.492188 308.820312 332.441406 306.449219 C 334.386719 304.078125 336.273438 301.660156 338.101562 299.195312 C 339.929688 296.730469 341.695312 294.222656 343.402344 291.667969 C 345.105469 289.117188 346.746094 286.527344 348.324219 283.894531 C 349.902344 281.261719 351.414062 278.59375 352.859375 275.886719 C 354.308594 273.179688 355.6875 270.441406 356.996094 267.667969 C 358.308594 264.894531 359.554688 262.089844 360.726562 259.253906 C 361.902344 256.417969 363.003906 253.554688 364.039062 250.667969 C 365.074219 247.777344 366.035156 244.863281 366.925781 241.929688 C 367.816406 238.992188 368.636719 236.035156 369.378906 233.058594 C 370.125 230.082031 370.796875 227.089844 371.398438 224.078125 C 371.996094 221.070312 372.519531 218.046875 372.96875 215.011719 C 373.421875 211.976562 373.796875 208.933594 374.097656 205.878906 C 374.398438 202.824219 374.625 199.765625 374.773438 196.699219 C 374.925781 193.636719 375 190.570312 375 187.5 C 375 184.429688 374.925781 181.363281 374.773438 178.300781 C 374.625 175.234375 374.398438 172.175781 374.097656 169.121094 C 373.796875 166.066406 373.421875 163.023438 372.96875 159.988281 C 372.519531 156.953125 371.996094 153.929688 371.398438 150.921875 C 370.796875 147.910156 370.125 144.917969 369.378906 141.941406 C 368.636719 138.964844 367.816406 136.007812 366.925781 133.070312 C 366.035156 130.136719 365.074219 127.222656 364.039062 124.332031 C 363.003906 121.445312 361.902344 118.582031 360.726562 115.746094 C 359.554688 112.910156 358.308594 110.105469 356.996094 107.332031 C 355.6875 104.558594 354.308594 101.820312 352.859375 99.113281 C 351.414062 96.40625 349.902344 93.738281 348.324219 91.105469 C 346.746094 88.472656 345.105469 85.882812 343.402344 83.332031 C 341.695312 80.777344 339.929688 78.269531 338.101562 75.804688 C 336.273438 73.339844 334.386719 70.921875 332.441406 68.550781 C 330.492188 66.179688 328.488281 63.855469 326.429688 61.582031 C 324.367188 59.308594 322.253906 57.085938 320.082031 54.917969 C 317.914062 52.746094 315.691406 50.632812 313.417969 48.570312 C 311.144531 46.511719 308.820312 44.507812 306.449219 42.558594 C 304.078125 40.613281 301.660156 38.726562 299.195312 36.898438 C 296.730469 35.070312 294.222656 33.304688 291.667969 31.597656 C 289.117188 29.894531 286.527344 28.253906 283.894531 26.675781 C 281.261719 25.097656 278.59375 23.585938 275.886719 22.140625 C 273.179688 20.691406 270.441406 19.3125 267.667969 18.003906 C 264.894531 16.691406 262.089844 15.445312 259.253906 14.273438 C 256.417969 13.097656 253.554688 11.996094 250.667969 10.960938 C 247.777344 9.925781 244.863281 8.964844 241.929688 8.074219 C 238.992188 7.183594 236.035156 6.363281 233.058594 5.617188 C 230.082031 4.875 227.089844 4.203125 224.078125 3.601562 C 221.070312 3.003906 218.046875 2.480469 215.011719 2.03125 C 211.976562 1.578125 208.933594 1.203125 205.878906 0.902344 C 202.824219 0.601562 199.765625 0.375 196.699219 0.226562 C 193.636719 0.0742188 190.570312 0 187.5 0 Z M 109.375 169.6875 C 109.667969 168.972656 110.058594 168.320312 110.546875 167.722656 C 111.03125 167.121094 111.597656 166.609375 112.234375 166.175781 C 112.875 165.746094 113.5625 165.417969 114.300781 165.191406 C 115.039062 164.964844 115.792969 164.847656 116.5625 164.84375 L 144.375 164.84375 L 144.375 86.71875 C 144.375 86.207031 144.425781 85.699219 144.523438 85.195312 C 144.625 84.691406 144.773438 84.203125 144.96875 83.730469 C 145.164062 83.253906 145.40625 82.804688 145.691406 82.378906 C 145.976562 81.953125 146.300781 81.558594 146.664062 81.195312 C 147.027344 80.832031 147.421875 80.507812 147.847656 80.222656 C 148.273438 79.9375 148.722656 79.695312 149.199219 79.5 C 149.671875 79.304688 150.160156 79.15625 150.664062 79.054688 C 151.167969 78.957031 151.675781 78.90625 152.1875 78.90625 L 223.59375 78.90625 C 224.105469 78.90625 224.613281 78.957031 225.117188 79.054688 C 225.621094 79.15625 226.109375 79.304688 226.582031 79.5 C 227.058594 79.695312 227.507812 79.9375 227.933594 80.222656 C 228.359375 80.507812 228.753906 80.832031 229.117188 81.195312 C 229.480469 81.558594 229.804688 81.953125 230.089844 82.378906 C 230.375 82.804688 230.613281 83.253906 230.8125 83.730469 C 231.007812 84.203125 231.15625 84.691406 231.257812 85.195312 C 231.355469 85.699219 231.40625 86.207031 231.40625 86.71875 L 231.40625 164.84375 L 259.21875 164.84375 C 259.984375 164.855469 260.730469 164.976562 261.460938 165.203125 C 262.1875 165.433594 262.871094 165.765625 263.5 166.195312 C 264.132812 166.625 264.691406 167.136719 265.171875 167.730469 C 265.65625 168.324219 266.042969 168.972656 266.332031 169.679688 C 266.625 170.386719 266.808594 171.121094 266.882812 171.882812 C 266.957031 172.644531 266.921875 173.398438 266.777344 174.148438 C 266.632812 174.898438 266.378906 175.613281 266.023438 176.289062 C 265.667969 176.96875 265.222656 177.578125 264.6875 178.125 L 229.21875 213.59375 L 192.96875 250 C 192.246094 250.734375 191.414062 251.308594 190.464844 251.710938 C 189.519531 252.117188 188.53125 252.328125 187.5 252.34375 C 186.441406 252.351562 185.425781 252.148438 184.449219 251.742188 C 183.472656 251.335938 182.613281 250.753906 181.875 250 L 146.40625 214.0625 L 110.78125 178.4375 C 110.234375 177.867188 109.785156 177.226562 109.433594 176.515625 C 109.082031 175.808594 108.84375 175.0625 108.71875 174.28125 C 108.59375 173.5 108.585938 172.71875 108.695312 171.933594 C 108.808594 171.152344 109.035156 170.402344 109.375 169.6875 Z M 266.71875 287.5 C 266.71875 288.011719 266.667969 288.519531 266.570312 289.023438 C 266.46875 289.527344 266.320312 290.015625 266.125 290.488281 C 265.925781 290.964844 265.6875 291.414062 265.402344 291.839844 C 265.117188 292.265625 264.792969 292.660156 264.429688 293.023438 C 264.066406 293.386719 263.671875 293.710938 263.246094 293.996094 C 262.820312 294.28125 262.371094 294.519531 261.894531 294.71875 C 261.421875 294.914062 260.933594 295.0625 260.429688 295.164062 C 259.925781 295.261719 259.417969 295.3125 258.90625 295.3125 L 116.09375 295.3125 C 115.582031 295.3125 115.074219 295.261719 114.570312 295.164062 C 114.066406 295.0625 113.578125 294.914062 113.105469 294.71875 C 112.628906 294.519531 112.179688 294.28125 111.753906 293.996094 C 111.328125 293.710938 110.933594 293.386719 110.570312 293.023438 C 110.207031 292.660156 109.882812 292.265625 109.597656 291.839844 C 109.3125 291.414062 109.070312 290.964844 108.875 290.488281 C 108.679688 290.015625 108.53125 289.527344 108.429688 289.023438 C 108.332031 288.519531 108.28125 288.011719 108.28125 287.5 L 108.28125 271.875 C 108.28125 271.363281 108.332031 270.855469 108.429688 270.351562 C 108.53125 269.847656 108.679688 269.359375 108.875 268.886719 C 109.070312 268.410156 109.3125 267.960938 109.597656 267.535156 C 109.882812 267.109375 110.207031 266.714844 110.570312 266.351562 C 110.933594 265.988281 111.328125 265.664062 111.753906 265.378906 C 112.179688 265.09375 112.628906 264.851562 113.105469 264.65625 C 113.578125 264.460938 114.066406 264.3125 114.570312 264.210938 C 115.074219 264.113281 115.582031 264.0625 116.09375 264.0625 L 258.75 264.0625 C 259.261719 264.0625 259.769531 264.113281 260.273438 264.210938 C 260.777344 264.3125 261.265625 264.460938 261.738281 264.65625 C 262.214844 264.851562 262.664062 265.09375 263.089844 265.378906 C 263.515625 265.664062 263.910156 265.988281 264.273438 266.351562 C 264.636719 266.714844 264.960938 267.109375 265.246094 267.535156 C 265.53125 267.960938 265.773438 268.410156 265.96875 268.886719 C 266.164062 269.359375 266.3125 269.847656 266.414062 270.351562 C 266.511719 270.855469 266.5625 271.363281 266.5625 271.875 L 266.5625 287.5 Z M 266.71875 287.5 " fill-opacity="1" fill-rule="nonzero"/></svg>