<svg width="18" height="18" viewBox="0 0 18 18" fill="none" xmlns="http://www.w3.org/2000/svg">
<g clip-path="url(#clip0_956_58)">
<path d="M13.0539 16.5501H1.44994V4.94607H8.30194L9.75206 3.49594H0V18H14.5041V8.19994L13.0539 9.65194V16.5501Z" fill="#222B35"/>
<path d="M15.2421 0.458215L17.5419 2.75809C17.5783 2.7219 17.6128 2.68384 17.6454 2.64428C17.6779 2.60453 17.7084 2.56347 17.7369 2.52072C17.7656 2.47815 17.7919 2.43409 17.8161 2.3889C17.8404 2.34372 17.8624 2.29722 17.8819 2.24997C17.9016 2.20253 17.9188 2.15415 17.9338 2.10503C17.9486 2.0559 17.9612 2.00622 17.9711 1.95597C17.9813 1.90553 17.9888 1.8549 17.9938 1.80372C17.9989 1.75272 18.0013 1.70153 18.0013 1.65015C18.0013 1.59878 17.9989 1.54759 17.9938 1.49659C17.9888 1.4454 17.9813 1.39478 17.9711 1.34434C17.9612 1.29409 17.9486 1.2444 17.9338 1.19528C17.9188 1.14615 17.9016 1.09778 17.8819 1.05034C17.8624 1.00309 17.8404 0.95659 17.8161 0.911403C17.7919 0.866215 17.7656 0.822153 17.7369 0.77959C17.7084 0.73684 17.6779 0.695778 17.6454 0.656028C17.6128 0.616465 17.5783 0.578403 17.5419 0.542215L17.4579 0.458215C17.4218 0.42184 17.3837 0.38734 17.3441 0.354715C17.3044 0.322278 17.2633 0.291715 17.2206 0.263215C17.178 0.234528 17.1339 0.208278 17.0888 0.18409C17.0436 0.159715 16.9971 0.137778 16.9496 0.118278C16.9024 0.0985903 16.854 0.0813403 16.8049 0.0663403C16.7558 0.0515278 16.7061 0.0389653 16.6558 0.0290278C16.6054 0.0189028 16.5548 0.0114028 16.5036 0.00634032C16.4526 0.00127783 16.4014 -0.00115967 16.35 -0.00115967C16.2986 -0.00115967 16.2474 0.00127783 16.1964 0.00634032C16.1453 0.0114028 16.0946 0.0189028 16.0442 0.0290278C15.9939 0.0389653 15.9443 0.0515278 15.8951 0.0663403C15.846 0.0813403 15.7976 0.0985903 15.7502 0.118278C15.7029 0.137778 15.6564 0.159715 15.6113 0.18409C15.5661 0.208278 15.522 0.234528 15.4794 0.263215C15.4367 0.291715 15.3956 0.322278 15.3559 0.354715C15.3163 0.38734 15.2783 0.42184 15.2421 0.458215Z" fill="#222B35"/>
<path d="M14.7999 0.906006L5.60007 10.1061L4.07794 13.926L7.89394 12.3999L17.094 3.20007L14.7999 0.906006ZM5.09194 12.906L5.96607 10.7421L7.28607 12.0441L5.09194 12.906Z" fill="#222B35"/>
</g>
<defs>
<clipPath id="clip0_956_58">
<rect width="18" height="18" fill="white"/>
</clipPath>
</defs>
</svg>
