<svg xmlns="http://www.w3.org/2000/svg" xmlns:xlink="http://www.w3.org/1999/xlink" width="500" zoomAndPan="magnify" viewBox="0 0 375 374.999991" height="500" preserveAspectRatio="xMidYMid meet" version="1.0"><defs><clipPath id="a506b2df60"><path d="M 187.5 0 C 83.945312 0 0 83.945312 0 187.5 C 0 291.054688 83.945312 375 187.5 375 C 291.054688 375 375 291.054688 375 187.5 C 375 83.945312 291.054688 0 187.5 0 Z M 187.5 0 " clip-rule="nonzero"/></clipPath><clipPath id="ab5e624f2f"><path d="M 101.066406 118 L 266 118 L 266 283.34375 L 101.066406 283.34375 Z M 101.066406 118 " clip-rule="nonzero"/></clipPath><clipPath id="0a22ca3b3e"><path d="M 273 79.34375 L 305 79.34375 L 305 111 L 273 111 Z M 273 79.34375 " clip-rule="nonzero"/></clipPath></defs><rect x="-37.5" width="450" fill="#ffffff" y="-37.499999" height="449.999989" fill-opacity="1"/><rect x="-37.5" width="450" fill="#ffffff" y="-37.499999" height="449.999989" fill-opacity="1"/><g clip-path="url(#a506b2df60)"><rect x="-37.5" width="450" fill="#222b35" y="-37.499999" height="449.999989" fill-opacity="1"/></g><g clip-path="url(#ab5e624f2f)"><path fill="#ffffff" d="M 248.816406 266.664062 L 117.480469 266.664062 L 117.480469 135.324219 L 195.03125 135.324219 L 211.445312 118.914062 L 101.066406 118.914062 L 101.066406 283.074219 L 265.230469 283.074219 L 265.230469 172.15625 L 248.816406 188.589844 Z M 248.816406 266.664062 " fill-opacity="1" fill-rule="nonzero"/></g><g clip-path="url(#0a22ca3b3e)"><path fill="#ffffff" d="M 273.582031 84.527344 L 299.613281 110.558594 C 300.023438 110.148438 300.414062 109.71875 300.785156 109.269531 C 301.152344 108.824219 301.5 108.355469 301.820312 107.875 C 302.144531 107.390625 302.441406 106.894531 302.714844 106.382812 C 302.992188 105.867188 303.238281 105.34375 303.460938 104.808594 C 303.683594 104.269531 303.878906 103.726562 304.046875 103.167969 C 304.21875 102.613281 304.359375 102.050781 304.472656 101.480469 C 304.585938 100.910156 304.671875 100.335938 304.726562 99.757812 C 304.785156 99.179688 304.8125 98.601562 304.8125 98.019531 C 304.8125 97.4375 304.785156 96.859375 304.726562 96.28125 C 304.671875 95.703125 304.585938 95.128906 304.472656 94.558594 C 304.359375 93.988281 304.21875 93.425781 304.046875 92.871094 C 303.878906 92.316406 303.683594 91.769531 303.460938 91.230469 C 303.238281 90.695312 302.992188 90.171875 302.714844 89.660156 C 302.441406 89.144531 302.144531 88.648438 301.820312 88.164062 C 301.5 87.683594 301.152344 87.21875 300.785156 86.769531 C 300.414062 86.320312 300.023438 85.890625 299.613281 85.480469 L 298.664062 84.527344 C 298.253906 84.117188 297.824219 83.726562 297.375 83.359375 C 296.925781 82.988281 296.460938 82.644531 295.976562 82.320312 C 295.492188 81.996094 294.996094 81.699219 294.484375 81.425781 C 293.972656 81.152344 293.445312 80.902344 292.910156 80.679688 C 292.375 80.457031 291.828125 80.261719 291.269531 80.09375 C 290.714844 79.925781 290.152344 79.785156 289.582031 79.671875 C 289.011719 79.558594 288.4375 79.472656 287.859375 79.414062 C 287.28125 79.359375 286.703125 79.328125 286.121094 79.328125 C 285.542969 79.328125 284.960938 79.359375 284.382812 79.414062 C 283.804688 79.472656 283.230469 79.558594 282.660156 79.671875 C 282.09375 79.785156 281.527344 79.925781 280.972656 80.09375 C 280.417969 80.261719 279.871094 80.457031 279.335938 80.679688 C 278.796875 80.902344 278.273438 81.152344 277.761719 81.425781 C 277.25 81.699219 276.75 81.996094 276.269531 82.320312 C 275.785156 82.644531 275.320312 82.988281 274.871094 83.359375 C 274.421875 83.726562 273.992188 84.117188 273.582031 84.527344 Z M 273.582031 84.527344 " fill-opacity="1" fill-rule="nonzero"/></g><path fill="#ffffff" d="M 268.578125 89.597656 L 164.449219 193.726562 L 147.222656 236.964844 L 190.414062 219.691406 L 294.542969 115.5625 Z M 158.699219 225.417969 L 168.59375 200.925781 L 183.53125 215.664062 Z M 158.699219 225.417969 " fill-opacity="1" fill-rule="nonzero"/></svg>