<svg xmlns="http://www.w3.org/2000/svg" xmlns:xlink="http://www.w3.org/1999/xlink" width="2000" zoomAndPan="magnify" viewBox="0 0 1500 1499.999933" height="2000" preserveAspectRatio="xMidYMid meet" version="1.0"><defs><g/><clipPath id="1b316657f3"><path d="M 34.136719 116 L 1465.886719 116 L 1465.886719 1384.566406 L 34.136719 1384.566406 Z M 34.136719 116 " clip-rule="nonzero"/></clipPath></defs><path fill="#000000" d="M 414.742188 555.011719 C 415.320312 556.914062 415.800781 558.84375 416.1875 560.796875 C 416.574219 562.746094 416.867188 564.714844 417.058594 566.695312 C 417.253906 568.675781 417.351562 570.660156 417.351562 572.652344 C 417.347656 574.640625 417.25 576.625 417.054688 578.605469 C 416.859375 580.589844 416.566406 582.554688 416.175781 584.507812 C 415.789062 586.457031 415.304688 588.386719 414.726562 590.289062 C 414.148438 592.195312 413.476562 594.066406 412.714844 595.902344 C 411.953125 597.742188 411.101562 599.539062 410.164062 601.292969 C 409.222656 603.050781 408.203125 604.753906 407.09375 606.40625 C 405.988281 608.0625 404.804688 609.660156 403.539062 611.195312 C 402.277344 612.734375 400.941406 614.207031 399.535156 615.613281 C 398.125 617.019531 396.652344 618.355469 395.113281 619.617188 C 393.574219 620.878906 391.980469 622.0625 390.324219 623.167969 C 388.667969 624.273438 386.964844 625.292969 385.207031 626.230469 C 383.453125 627.167969 381.65625 628.015625 379.816406 628.777344 C 377.976562 629.539062 376.105469 630.207031 374.199219 630.785156 C 372.296875 631.359375 370.367188 631.84375 368.414062 632.230469 C 366.464844 632.617188 364.496094 632.910156 362.515625 633.101562 C 360.535156 633.296875 358.550781 633.394531 356.5625 633.394531 C 354.570312 633.390625 352.585938 633.292969 350.605469 633.097656 C 348.625 632.902344 346.660156 632.609375 344.707031 632.21875 C 342.753906 631.832031 340.828125 631.347656 338.921875 630.769531 C 337.019531 630.191406 335.148438 629.519531 333.308594 628.757812 C 331.472656 627.996094 329.675781 627.144531 327.921875 626.207031 C 326.164062 625.265625 324.460938 624.242188 322.808594 623.136719 C 321.152344 622.03125 319.558594 620.847656 318.019531 619.582031 C 316.480469 618.320312 315.007812 616.984375 313.601562 615.574219 C 312.195312 614.167969 310.863281 612.695312 309.601562 611.15625 C 308.339844 609.617188 307.15625 608.019531 306.050781 606.363281 C 304.945312 604.707031 303.925781 603.003906 302.988281 601.246094 C 302.050781 599.492188 301.199219 597.695312 300.441406 595.855469 C 299.679688 594.015625 299.011719 592.144531 298.433594 590.238281 C 297.855469 588.335938 297.375 586.40625 296.988281 584.453125 C 296.597656 582.5 296.308594 580.535156 296.113281 578.554688 C 295.921875 576.574219 295.824219 574.589844 295.824219 572.597656 C 295.824219 570.609375 295.921875 568.621094 296.121094 566.640625 C 296.316406 564.660156 296.609375 562.695312 296.996094 560.742188 C 297.386719 558.792969 297.871094 556.863281 298.449219 554.957031 C 299.027344 553.054688 299.699219 551.183594 300.460938 549.34375 C 301.222656 547.507812 302.074219 545.710938 303.011719 543.953125 C 303.949219 542.199219 304.972656 540.496094 306.078125 538.839844 C 307.1875 537.1875 308.371094 535.589844 309.632812 534.054688 C 310.898438 532.515625 312.234375 531.042969 313.640625 529.636719 C 315.046875 528.230469 316.519531 526.894531 318.058594 525.632812 C 319.597656 524.371094 321.195312 523.1875 322.851562 522.082031 C 324.507812 520.976562 326.210938 519.957031 327.96875 519.019531 C 329.722656 518.082031 331.519531 517.234375 333.359375 516.472656 C 335.199219 515.710938 337.070312 515.042969 338.972656 514.464844 C 340.878906 513.886719 342.808594 513.40625 344.757812 513.019531 C 346.710938 512.632812 348.675781 512.339844 350.65625 512.144531 C 352.636719 511.953125 354.625 511.855469 356.613281 511.855469 C 358.605469 511.855469 360.589844 511.957031 362.570312 512.152344 C 364.550781 512.347656 366.515625 512.640625 368.46875 513.027344 C 370.417969 513.417969 372.347656 513.902344 374.25 514.480469 C 376.15625 515.058594 378.027344 515.730469 379.863281 516.492188 C 381.703125 517.253906 383.5 518.105469 385.253906 519.042969 C 387.007812 519.984375 388.714844 521.003906 390.367188 522.113281 C 392.023438 523.21875 393.617188 524.402344 395.15625 525.667969 C 396.691406 526.929688 398.164062 528.265625 399.570312 529.671875 C 400.980469 531.082031 402.3125 532.554688 403.574219 534.09375 C 404.835938 535.632812 406.019531 537.230469 407.125 538.886719 C 408.230469 540.539062 409.25 542.246094 410.1875 544 C 411.125 545.757812 411.972656 547.554688 412.734375 549.394531 C 413.496094 551.234375 414.164062 553.105469 414.742188 555.011719 Z M 414.742188 555.011719 " fill-opacity="1" fill-rule="nonzero"/><path fill="#000000" d="M 634.449219 554.992188 C 635.027344 556.898438 635.507812 558.824219 635.894531 560.777344 C 636.28125 562.730469 636.574219 564.695312 636.765625 566.675781 C 636.960938 568.65625 637.058594 570.644531 637.058594 572.632812 C 637.054688 574.625 636.957031 576.609375 636.761719 578.589844 C 636.566406 580.570312 636.273438 582.535156 635.882812 584.488281 C 635.496094 586.441406 635.011719 588.367188 634.433594 590.273438 C 633.855469 592.175781 633.183594 594.046875 632.421875 595.886719 C 631.660156 597.726562 630.808594 599.523438 629.871094 601.277344 C 628.929688 603.03125 627.910156 604.734375 626.800781 606.390625 C 625.695312 608.046875 624.511719 609.640625 623.246094 611.179688 C 621.984375 612.71875 620.648438 614.1875 619.242188 615.597656 C 617.832031 617.003906 616.359375 618.335938 614.820312 619.597656 C 613.28125 620.859375 611.6875 622.042969 610.03125 623.148438 C 608.375 624.253906 606.671875 625.277344 604.914062 626.214844 C 603.160156 627.152344 601.363281 628 599.523438 628.761719 C 597.683594 629.519531 595.8125 630.191406 593.90625 630.765625 C 592.003906 631.34375 590.074219 631.824219 588.121094 632.214844 C 586.171875 632.601562 584.203125 632.890625 582.222656 633.085938 C 580.242188 633.28125 578.257812 633.375 576.269531 633.375 C 574.277344 633.375 572.292969 633.277344 570.3125 633.082031 C 568.332031 632.886719 566.367188 632.59375 564.414062 632.203125 C 562.460938 631.8125 560.535156 631.332031 558.628906 630.75 C 556.726562 630.171875 554.855469 629.503906 553.015625 628.738281 C 551.179688 627.976562 549.382812 627.125 547.628906 626.1875 C 545.871094 625.25 544.167969 624.226562 542.515625 623.121094 C 540.859375 622.011719 539.265625 620.828125 537.726562 619.566406 C 536.1875 618.300781 534.714844 616.964844 533.308594 615.558594 C 531.902344 614.152344 530.570312 612.675781 529.308594 611.136719 C 528.046875 609.597656 526.863281 608 525.757812 606.347656 C 524.652344 604.691406 523.632812 602.984375 522.695312 601.230469 C 521.757812 599.472656 520.90625 597.675781 520.148438 595.839844 C 519.386719 594 518.71875 592.128906 518.140625 590.222656 C 517.5625 588.316406 517.082031 586.390625 516.695312 584.4375 C 516.304688 582.484375 516.015625 580.519531 515.820312 578.539062 C 515.628906 576.554688 515.53125 574.570312 515.53125 572.582031 C 515.53125 570.589844 515.628906 568.605469 515.828125 566.625 C 516.023438 564.644531 516.316406 562.679688 516.703125 560.726562 C 517.09375 558.773438 517.578125 556.847656 518.15625 554.941406 C 518.734375 553.039062 519.40625 551.167969 520.167969 549.328125 C 520.929688 547.488281 521.78125 545.691406 522.71875 543.9375 C 523.65625 542.183594 524.679688 540.476562 525.785156 538.824219 C 526.894531 537.167969 528.078125 535.574219 529.339844 534.035156 C 530.605469 532.496094 531.941406 531.023438 533.347656 529.617188 C 534.753906 528.210938 536.226562 526.878906 537.765625 525.617188 C 539.304688 524.355469 540.902344 523.171875 542.558594 522.066406 C 544.214844 520.960938 545.917969 519.9375 547.675781 519 C 549.429688 518.0625 551.226562 517.214844 553.066406 516.453125 C 554.90625 515.695312 556.777344 515.023438 558.679688 514.449219 C 560.585938 513.871094 562.515625 513.386719 564.464844 513 C 566.417969 512.613281 568.382812 512.324219 570.363281 512.128906 C 572.34375 511.933594 574.332031 511.839844 576.320312 511.839844 C 578.3125 511.839844 580.296875 511.9375 582.277344 512.132812 C 584.257812 512.328125 586.222656 512.621094 588.175781 513.011719 C 590.125 513.402344 592.054688 513.882812 593.957031 514.464844 C 595.863281 515.042969 597.734375 515.710938 599.570312 516.476562 C 601.410156 517.238281 603.207031 518.085938 604.960938 519.027344 C 606.714844 519.964844 608.421875 520.988281 610.074219 522.09375 C 611.730469 523.203125 613.324219 524.386719 614.863281 525.648438 C 616.398438 526.914062 617.871094 528.25 619.277344 529.65625 C 620.683594 531.0625 622.019531 532.539062 623.28125 534.078125 C 624.542969 535.617188 625.726562 537.210938 626.832031 538.867188 C 627.9375 540.523438 628.957031 542.230469 629.894531 543.984375 C 630.832031 545.742188 631.679688 547.539062 632.441406 549.375 C 633.203125 551.214844 633.871094 553.085938 634.449219 554.992188 Z M 634.449219 554.992188 " fill-opacity="1" fill-rule="nonzero"/><path fill="#000000" d="M 856.734375 572.683594 C 856.734375 574.671875 856.636719 576.65625 856.441406 578.636719 C 856.246094 580.617188 855.953125 582.585938 855.566406 584.539062 C 855.175781 586.488281 854.695312 588.417969 854.117188 590.320312 C 853.539062 592.226562 852.867188 594.097656 852.109375 595.9375 C 851.347656 597.777344 850.496094 599.574219 849.558594 601.328125 C 848.621094 603.082031 847.597656 604.789062 846.492188 606.441406 C 845.386719 608.097656 844.203125 609.695312 842.941406 611.234375 C 841.679688 612.773438 840.34375 614.246094 838.9375 615.652344 C 837.527344 617.058594 836.054688 618.394531 834.515625 619.65625 C 832.980469 620.917969 831.382812 622.105469 829.726562 623.210938 C 828.074219 624.316406 826.367188 625.335938 824.613281 626.273438 C 822.859375 627.214844 821.0625 628.0625 819.222656 628.824219 C 817.382812 629.585938 815.511719 630.257812 813.609375 630.832031 C 811.703125 631.410156 809.777344 631.894531 807.824219 632.28125 C 805.871094 632.671875 803.90625 632.964844 801.925781 633.15625 C 799.945312 633.351562 797.960938 633.449219 795.96875 633.449219 C 793.980469 633.449219 791.996094 633.351562 790.015625 633.15625 C 788.035156 632.964844 786.066406 632.671875 784.117188 632.28125 C 782.164062 631.894531 780.234375 631.410156 778.332031 630.832031 C 776.425781 630.257812 774.554688 629.585938 772.71875 628.824219 C 770.878906 628.0625 769.082031 627.214844 767.328125 626.273438 C 765.570312 625.335938 763.867188 624.316406 762.210938 623.210938 C 760.558594 622.105469 758.960938 620.917969 757.421875 619.65625 C 755.882812 618.394531 754.410156 617.058594 753.003906 615.652344 C 751.597656 614.246094 750.261719 612.773438 749 611.234375 C 747.738281 609.695312 746.554688 608.097656 745.449219 606.441406 C 744.34375 604.789062 743.320312 603.082031 742.382812 601.328125 C 741.445312 599.574219 740.59375 597.777344 739.832031 595.9375 C 739.070312 594.097656 738.402344 592.226562 737.824219 590.320312 C 737.246094 588.417969 736.761719 586.488281 736.375 584.539062 C 735.984375 582.585938 735.695312 580.617188 735.5 578.636719 C 735.304688 576.65625 735.207031 574.671875 735.207031 572.683594 C 735.207031 570.691406 735.304688 568.707031 735.5 566.726562 C 735.695312 564.746094 735.984375 562.777344 736.375 560.828125 C 736.761719 558.875 737.246094 556.945312 737.824219 555.042969 C 738.402344 553.136719 739.070312 551.265625 739.832031 549.425781 C 740.59375 547.589844 741.445312 545.792969 742.382812 544.035156 C 743.320312 542.28125 744.339844 540.574219 745.449219 538.921875 C 746.554688 537.265625 747.738281 535.667969 749 534.128906 C 750.261719 532.59375 751.597656 531.121094 753.003906 529.710938 C 754.410156 528.304688 755.882812 526.96875 757.421875 525.707031 C 758.960938 524.445312 760.558594 523.261719 762.210938 522.15625 C 763.867188 521.050781 765.570312 520.027344 767.328125 519.089844 C 769.082031 518.152344 770.878906 517.300781 772.71875 516.539062 C 774.554688 515.777344 776.425781 515.109375 778.332031 514.53125 C 780.234375 513.953125 782.164062 513.46875 784.117188 513.082031 C 786.066406 512.691406 788.035156 512.402344 790.015625 512.207031 C 791.996094 512.011719 793.980469 511.914062 795.96875 511.914062 C 797.960938 511.914062 799.945312 512.011719 801.925781 512.207031 C 803.90625 512.402344 805.871094 512.691406 807.824219 513.082031 C 809.777344 513.46875 811.703125 513.953125 813.609375 514.53125 C 815.511719 515.109375 817.382812 515.777344 819.222656 516.539062 C 821.0625 517.300781 822.859375 518.152344 824.613281 519.089844 C 826.367188 520.027344 828.074219 521.050781 829.726562 522.15625 C 831.382812 523.261719 832.980469 524.445312 834.515625 525.707031 C 836.054688 526.96875 837.527344 528.304688 838.9375 529.710938 C 840.34375 531.121094 841.679688 532.59375 842.941406 534.128906 C 844.203125 535.667969 845.386719 537.265625 846.492188 538.921875 C 847.597656 540.574219 848.621094 542.28125 849.558594 544.035156 C 850.496094 545.792969 851.347656 547.589844 852.109375 549.425781 C 852.867188 551.265625 853.539062 553.136719 854.117188 555.042969 C 854.695312 556.945312 855.175781 558.875 855.566406 560.828125 C 855.953125 562.777344 856.246094 564.746094 856.441406 566.726562 C 856.636719 568.707031 856.734375 570.691406 856.734375 572.683594 Z M 856.734375 572.683594 " fill-opacity="1" fill-rule="nonzero"/><g clip-path="url(#1b316657f3)"><path fill="#000000" d="M 1279.21875 1175.4375 C 1398.117188 1088.574219 1465.882812 963.875 1465.882812 830.570312 C 1465.882812 626.460938 1305.574219 447.828125 1074.222656 391.796875 C 1046.601562 337.839844 1007.367188 289.453125 957.5625 247.96875 C 855.460938 162.921875 720.039062 116.085938 576.253906 116.085938 C 432.46875 116.085938 297.046875 162.921875 194.945312 247.96875 C 144.761719 289.769531 105.289062 338.578125 77.640625 393.03125 C 48.773438 449.878906 34.136719 510.320312 34.136719 572.683594 C 34.136719 705.988281 101.902344 830.6875 220.800781 917.550781 C 209.582031 974.4375 184.070312 1029.355469 146.417969 1077.371094 C 138.683594 1087.234375 137.847656 1100.851562 144.320312 1111.585938 C 149.847656 1120.753906 159.71875 1126.191406 170.167969 1126.191406 C 171.953125 1126.191406 173.753906 1126.03125 175.558594 1125.707031 C 269.402344 1108.699219 356.039062 1070.339844 427.335938 1014.417969 C 467.839844 1092.121094 532.886719 1158.402344 616.464844 1206.875 C 707.035156 1259.40625 813.300781 1287.171875 923.765625 1287.171875 C 973.507812 1287.171875 1022.679688 1281.511719 1070.167969 1270.332031 C 1141.941406 1327.332031 1229.519531 1366.394531 1324.460938 1383.597656 C 1326.265625 1383.925781 1328.0625 1384.082031 1329.851562 1384.082031 C 1340.300781 1384.082031 1350.171875 1378.644531 1355.699219 1369.476562 C 1362.171875 1358.742188 1361.335938 1345.125 1353.601562 1335.261719 C 1315.949219 1287.25 1290.441406 1232.332031 1279.21875 1175.441406 Z M 496.421875 963.449219 C 494.789062 963.226562 493.15625 963.003906 491.527344 962.761719 C 490.371094 962.59375 489.214844 962.414062 488.0625 962.238281 C 485.425781 961.835938 482.796875 961.414062 480.171875 960.976562 C 478.636719 960.71875 477.101562 960.472656 475.574219 960.203125 C 474.226562 959.96875 472.878906 959.714844 471.53125 959.472656 C 470.070312 959.203125 468.613281 958.9375 467.15625 958.664062 C 465.839844 958.414062 464.523438 958.152344 463.207031 957.890625 C 461.714844 957.59375 460.21875 957.292969 458.730469 956.988281 C 457.457031 956.722656 456.183594 956.457031 454.910156 956.1875 C 446.589844 954.402344 438.316406 952.453125 430.109375 950.300781 C 420.605469 947.8125 410.496094 950.09375 402.992188 956.429688 C 355.335938 996.640625 299.035156 1027.648438 237.46875 1047.894531 C 261.015625 1003.738281 276.71875 956.414062 283.628906 908.101562 C 285.269531 896.667969 280.234375 885.292969 270.660156 878.820312 C 158.714844 803.082031 94.511719 691.503906 94.511719 572.691406 C 94.511719 354.21875 310.621094 176.476562 576.253906 176.476562 C 783.066406 176.476562 959.855469 284.21875 1028.011719 435.042969 C 1028.292969 435.664062 1028.578125 436.285156 1028.851562 436.910156 C 1029.886719 439.234375 1030.890625 441.570312 1031.875 443.917969 C 1032.136719 444.546875 1032.40625 445.175781 1032.667969 445.804688 C 1033.261719 447.246094 1033.847656 448.691406 1034.417969 450.144531 C 1034.683594 450.804688 1034.9375 451.472656 1035.195312 452.140625 C 1036.105469 454.480469 1036.992188 456.824219 1037.855469 459.183594 C 1038.082031 459.8125 1038.308594 460.449219 1038.535156 461.085938 C 1039.394531 463.492188 1040.230469 465.90625 1041.035156 468.328125 C 1041.238281 468.9375 1041.433594 469.542969 1041.632812 470.148438 C 1042.4375 472.617188 1043.214844 475.089844 1043.957031 477.570312 C 1044.132812 478.160156 1044.3125 478.746094 1044.484375 479.335938 C 1045.222656 481.84375 1045.929688 484.359375 1046.609375 486.886719 C 1046.765625 487.46875 1046.925781 488.050781 1047.082031 488.632812 C 1047.742188 491.15625 1048.375 493.683594 1048.980469 496.226562 C 1049.125 496.824219 1049.269531 497.421875 1049.414062 498.019531 C 1049.757812 499.515625 1050.097656 501.011719 1050.425781 502.511719 C 1050.710938 503.828125 1050.984375 505.148438 1051.257812 506.46875 C 1051.609375 508.195312 1051.953125 509.917969 1052.28125 511.652344 C 1052.515625 512.910156 1052.742188 514.167969 1052.964844 515.429688 C 1053.273438 517.167969 1053.570312 518.90625 1053.847656 520.652344 C 1054.074219 522.070312 1054.292969 523.492188 1054.5 524.910156 C 1054.714844 526.367188 1054.917969 527.824219 1055.113281 529.285156 C 1055.34375 531.003906 1055.558594 532.726562 1055.757812 534.445312 C 1055.863281 535.332031 1055.972656 536.214844 1056.066406 537.105469 C 1056.316406 539.402344 1056.535156 541.703125 1056.738281 544.003906 C 1056.804688 544.769531 1056.871094 545.535156 1056.929688 546.300781 C 1057.125 548.71875 1057.292969 551.144531 1057.433594 553.566406 C 1057.46875 554.179688 1057.5 554.792969 1057.53125 555.402344 C 1057.664062 557.976562 1057.773438 560.550781 1057.851562 563.128906 C 1057.863281 563.527344 1057.871094 563.921875 1057.878906 564.316406 C 1057.949219 567.101562 1057.996094 569.890625 1057.996094 572.6875 C 1057.996094 791.160156 841.886719 968.902344 576.253906 968.902344 C 573.375 968.902344 570.5 968.878906 567.625 968.835938 C 566.628906 968.820312 565.632812 968.796875 564.640625 968.777344 C 562.769531 968.742188 560.902344 968.699219 559.035156 968.644531 C 557.824219 968.609375 556.613281 968.566406 555.398438 968.523438 C 553.765625 968.46875 552.132812 968.402344 550.5 968.332031 C 549.179688 968.273438 547.863281 968.214844 546.542969 968.148438 C 545.027344 968.070312 543.503906 967.984375 541.988281 967.898438 C 540.609375 967.816406 539.230469 967.742188 537.847656 967.648438 C 536.421875 967.558594 535 967.449219 533.574219 967.347656 C 530.640625 967.136719 527.710938 966.898438 524.789062 966.644531 C 523.710938 966.550781 522.632812 966.464844 521.550781 966.363281 C 519.886719 966.207031 518.226562 966.035156 516.5625 965.863281 C 515.425781 965.75 514.292969 965.636719 513.160156 965.515625 C 511.503906 965.335938 509.847656 965.144531 508.199219 964.953125 C 507.058594 964.820312 505.917969 964.6875 504.78125 964.546875 C 503.136719 964.34375 501.492188 964.136719 499.851562 963.921875 C 498.703125 963.769531 497.5625 963.613281 496.417969 963.453125 Z M 1097.046875 1214.304688 C 1091.539062 1209.660156 1084.625 1207.1875 1077.578125 1207.1875 C 1075.023438 1207.1875 1072.457031 1207.515625 1069.929688 1208.171875 C 1022.800781 1220.523438 973.625 1226.785156 923.769531 1226.785156 C 749.730469 1226.785156 588.957031 1147.773438 504.324219 1025.28125 C 504.882812 1025.34375 505.4375 1025.394531 505.996094 1025.457031 C 508.285156 1025.707031 510.578125 1025.953125 512.875 1026.179688 C 513.546875 1026.246094 514.222656 1026.300781 514.902344 1026.367188 C 517.230469 1026.589844 519.558594 1026.804688 521.890625 1027 C 522.570312 1027.058594 523.25 1027.105469 523.925781 1027.160156 C 526.25 1027.347656 528.574219 1027.53125 530.898438 1027.691406 C 531.644531 1027.746094 532.386719 1027.789062 533.132812 1027.835938 C 535.390625 1027.988281 537.652344 1028.132812 539.917969 1028.261719 C 540.800781 1028.308594 541.691406 1028.347656 542.578125 1028.394531 C 544.699219 1028.503906 546.820312 1028.617188 548.949219 1028.703125 C 550.089844 1028.753906 551.226562 1028.785156 552.371094 1028.828125 C 554.25 1028.894531 556.125 1028.972656 558.007812 1029.023438 C 559.597656 1029.066406 561.191406 1029.09375 562.785156 1029.125 C 564.230469 1029.152344 565.667969 1029.195312 567.113281 1029.214844 C 570.160156 1029.257812 573.210938 1029.28125 576.265625 1029.28125 C 720.050781 1029.28125 855.46875 982.441406 957.574219 897.398438 C 970.121094 886.945312 981.996094 876.054688 993.1875 864.753906 C 1026.753906 830.835938 1054.140625 793.175781 1074.882812 752.332031 C 1097.433594 707.921875 1111.300781 661.316406 1116.285156 613.3125 C 1117.683594 599.871094 1118.382812 586.324219 1118.382812 572.683594 C 1118.382812 570.503906 1118.359375 568.332031 1118.320312 566.15625 C 1118.3125 565.527344 1118.292969 564.894531 1118.28125 564.257812 C 1118.246094 562.6875 1118.207031 561.113281 1118.152344 559.542969 C 1118.132812 558.863281 1118.101562 558.1875 1118.078125 557.511719 C 1118.015625 555.902344 1117.945312 554.296875 1117.863281 552.691406 C 1117.835938 552.132812 1117.808594 551.574219 1117.773438 551.011719 C 1117.664062 549.039062 1117.542969 547.0625 1117.40625 545.09375 C 1117.394531 544.929688 1117.382812 544.765625 1117.371094 544.601562 C 1115.386719 516.765625 1110.4375 489.371094 1102.5625 462.570312 C 1283.511719 521.996094 1405.511719 667.125 1405.511719 830.570312 C 1405.511719 949.382812 1341.304688 1060.960938 1229.363281 1136.699219 C 1219.792969 1143.175781 1214.753906 1154.542969 1216.390625 1165.984375 C 1223.304688 1214.300781 1239.007812 1261.621094 1262.554688 1305.777344 C 1200.996094 1285.53125 1144.707031 1254.523438 1097.050781 1214.308594 Z M 1097.046875 1214.304688 " fill-opacity="1" fill-rule="nonzero"/></g><g fill="#000000" fill-opacity="1"><g transform="translate(544.679698, 584.549282)"><g><path d="M 12.421875 -15.546875 C 14.210938 -15.546875 15.84375 -15.117188 17.3125 -14.265625 C 18.78125 -13.410156 19.941406 -12.257812 20.796875 -10.8125 C 21.648438 -9.363281 22.078125 -7.742188 22.078125 -5.953125 C 22.078125 -4.160156 21.648438 -2.535156 20.796875 -1.078125 C 19.941406 0.367188 18.78125 1.53125 17.3125 2.40625 C 15.84375 3.28125 14.210938 3.71875 12.421875 3.71875 C 10.671875 3.71875 9.066406 3.28125 7.609375 2.40625 C 6.160156 1.53125 5 0.367188 4.125 -1.078125 C 3.25 -2.535156 2.8125 -4.160156 2.8125 -5.953125 C 2.8125 -7.742188 3.25 -9.363281 4.125 -10.8125 C 5 -12.257812 6.160156 -13.410156 7.609375 -14.265625 C 9.066406 -15.117188 10.671875 -15.546875 12.421875 -15.546875 Z M 12.421875 0.703125 C 14.296875 0.703125 15.875 0.0507812 17.15625 -1.25 C 18.4375 -2.550781 19.078125 -4.117188 19.078125 -5.953125 C 19.078125 -7.742188 18.4375 -9.289062 17.15625 -10.59375 C 15.875 -11.894531 14.296875 -12.546875 12.421875 -12.546875 C 10.628906 -12.546875 9.082031 -11.894531 7.78125 -10.59375 C 6.476562 -9.289062 5.828125 -7.742188 5.828125 -5.953125 C 5.828125 -4.117188 6.476562 -2.550781 7.78125 -1.25 C 9.082031 0.0507812 10.628906 0.703125 12.421875 0.703125 Z M 12.421875 0.703125 "/></g></g></g></svg>