<svg xmlns="http://www.w3.org/2000/svg" xmlns:xlink="http://www.w3.org/1999/xlink" width="500" zoomAndPan="magnify" viewBox="0 0 375 374.999991" height="500" preserveAspectRatio="xMidYMid meet" version="1.2"><defs><clipPath id="acbaae8eec"><path d="M 0 23.4375 L 375 23.4375 L 375 351.9375 L 0 351.9375 Z M 0 23.4375 "/></clipPath></defs><g id="f57e8d739f"><g clip-rule="nonzero" clip-path="url(#acbaae8eec)"><path style=" stroke:none;fill-rule:evenodd;fill:#0078f0;fill-opacity:1;" d="M 123.300781 76.335938 C 137.839844 67.90625 156.039062 71.738281 166.15625 84.507812 C 171.003906 90.636719 177.722656 93.871094 185.460938 93.871094 L 189.539062 93.871094 C 197.363281 93.871094 203.996094 90.636719 208.84375 84.507812 C 211.394531 81.273438 214.539062 78.550781 218.28125 76.335938 C 234.269531 67.140625 254.675781 72.589844 263.859375 88.59375 C 269.132812 97.789062 269.644531 108.515625 265.988281 117.625 C 263.09375 124.859375 263.691406 132.351562 267.515625 139.078125 L 269.472656 142.566406 C 273.382812 149.292969 279.507812 153.550781 287.246094 154.65625 C 297.023438 156.105469 306.039062 161.808594 311.308594 171 C 320.492188 187.007812 315.050781 207.4375 299.066406 216.632812 C 295.324219 218.84375 291.328125 220.207031 287.246094 220.804688 C 279.507812 221.910156 273.382812 226.167969 269.472656 232.890625 L 267.515625 236.296875 C 263.605469 243.023438 263.09375 250.515625 265.988281 257.75 C 272.023438 272.902344 266.15625 290.609375 251.617188 299.039062 C 237.074219 307.46875 218.878906 303.636719 208.757812 290.867188 C 203.910156 284.738281 197.195312 281.503906 189.457031 281.503906 L 185.375 281.503906 C 177.550781 281.503906 170.917969 284.738281 166.070312 290.867188 C 163.519531 294.101562 160.375 296.824219 156.632812 299.039062 C 140.644531 308.234375 120.238281 302.785156 111.054688 286.78125 C 101.871094 270.777344 107.3125 250.34375 123.300781 241.148438 C 137.839844 232.722656 156.039062 236.554688 166.15625 249.324219 C 171.003906 255.453125 177.722656 258.6875 185.460938 258.6875 L 189.539062 258.6875 C 197.363281 258.6875 203.996094 255.453125 208.84375 249.324219 C 211.394531 246.085938 214.539062 243.363281 218.28125 241.148438 C 222.023438 238.9375 226.019531 237.574219 230.101562 237.0625 C 237.839844 235.957031 243.960938 231.699219 247.875 224.976562 L 249.828125 221.570312 C 253.742188 214.84375 254.25 207.351562 251.359375 200.117188 C 248.128906 192.027344 248.300781 183.175781 251.359375 175.515625 C 254.25 168.277344 253.65625 160.785156 249.828125 154.0625 L 247.875 150.570312 C 243.960938 143.84375 237.839844 139.589844 230.101562 138.480469 C 221.855469 137.289062 214.199219 133.035156 208.84375 126.222656 C 203.996094 120.09375 197.277344 116.859375 189.539062 116.859375 L 185.460938 116.859375 C 177.636719 116.859375 171.003906 120.09375 166.15625 126.222656 C 163.605469 129.457031 160.460938 132.183594 156.71875 134.394531 C 140.730469 143.589844 120.324219 138.140625 111.140625 122.136719 C 101.871094 106.046875 107.3125 85.53125 123.300781 76.335938 Z M 56.039062 123.925781 C 49.320312 123.925781 43.792969 118.476562 43.792969 111.664062 C 43.792969 104.855469 49.320312 99.492188 56.039062 99.492188 C 62.753906 99.492188 68.28125 104.941406 68.28125 111.75 C 68.28125 118.5625 62.839844 123.925781 56.039062 123.925781 Z M 318.960938 275.882812 C 325.679688 275.882812 331.207031 270.433594 331.207031 263.625 C 331.207031 256.8125 325.765625 251.367188 318.960938 251.367188 C 312.246094 251.367188 306.71875 256.8125 306.71875 263.625 C 306.71875 270.433594 312.160156 275.882812 318.960938 275.882812 Z M 12.246094 199.945312 C 5.527344 199.945312 0 194.496094 0 187.6875 C 0 180.960938 5.441406 175.429688 12.246094 175.429688 C 18.960938 175.429688 24.488281 180.878906 24.488281 187.6875 C 24.488281 194.414062 18.960938 199.945312 12.246094 199.945312 Z M 56.039062 275.882812 C 49.320312 275.882812 43.792969 270.433594 43.792969 263.625 C 43.792969 256.8125 49.234375 251.367188 56.039062 251.367188 C 62.839844 251.367188 68.28125 256.8125 68.28125 263.625 C 68.28125 270.433594 62.839844 275.882812 56.039062 275.882812 Z M 99.828125 351.90625 C 93.113281 351.90625 87.585938 346.457031 87.585938 339.648438 C 87.585938 332.921875 93.027344 327.386719 99.828125 327.386719 C 106.632812 327.386719 112.074219 332.835938 112.074219 339.648438 C 112.074219 346.371094 106.632812 351.90625 99.828125 351.90625 Z M 187.5 351.90625 C 180.78125 351.90625 175.253906 346.457031 175.253906 339.648438 C 175.253906 332.921875 180.695312 327.386719 187.5 327.386719 C 194.21875 327.386719 199.746094 332.835938 199.746094 339.648438 C 199.746094 346.371094 194.21875 351.90625 187.5 351.90625 Z M 275.171875 351.90625 C 268.453125 351.90625 262.925781 346.457031 262.925781 339.648438 C 262.925781 332.921875 268.367188 327.386719 275.171875 327.386719 C 281.886719 327.386719 287.414062 332.835938 287.414062 339.648438 C 287.328125 346.371094 281.886719 351.90625 275.171875 351.90625 Z M 362.753906 175.429688 C 369.472656 175.429688 375 180.878906 375 187.6875 C 375 194.414062 369.558594 199.945312 362.753906 199.945312 C 356.039062 199.945312 350.511719 194.496094 350.511719 187.6875 C 350.511719 180.878906 356.039062 175.429688 362.753906 175.429688 Z M 318.960938 99.492188 C 312.246094 99.492188 306.71875 104.941406 306.71875 111.75 C 306.71875 118.5625 312.160156 124.007812 318.960938 124.007812 C 325.679688 124.007812 331.207031 118.5625 331.207031 111.75 C 331.207031 104.941406 325.679688 99.492188 318.960938 99.492188 Z M 275.171875 23.46875 C 281.886719 23.46875 287.414062 28.917969 287.414062 35.726562 C 287.414062 42.539062 281.972656 47.988281 275.171875 47.988281 C 268.453125 47.988281 262.925781 42.539062 262.925781 35.726562 C 262.925781 28.917969 268.367188 23.46875 275.171875 23.46875 Z M 187.5 23.46875 C 194.21875 23.46875 199.746094 28.917969 199.746094 35.726562 C 199.746094 42.539062 194.300781 47.988281 187.5 47.988281 C 180.78125 47.988281 175.253906 42.539062 175.253906 35.726562 C 175.253906 28.917969 180.78125 23.46875 187.5 23.46875 Z M 99.828125 23.46875 C 106.546875 23.46875 112.074219 28.917969 112.074219 35.726562 C 112.074219 42.539062 106.632812 47.988281 99.828125 47.988281 C 93.027344 47.988281 87.585938 42.539062 87.585938 35.726562 C 87.585938 28.917969 93.113281 23.46875 99.828125 23.46875 Z M 170.832031 158.742188 C 154.847656 167.9375 149.40625 188.453125 158.589844 204.375 C 167.773438 220.378906 188.265625 225.828125 204.167969 216.632812 C 220.152344 207.4375 225.59375 186.921875 216.410156 171 C 207.226562 154.996094 186.734375 149.464844 170.832031 158.742188 Z M 75.765625 158.742188 C 59.777344 167.9375 54.335938 188.453125 63.519531 204.375 C 72.703125 220.378906 93.199219 225.828125 109.097656 216.632812 C 125.085938 207.4375 130.527344 186.921875 121.34375 171 C 112.160156 154.996094 91.75 149.464844 75.765625 158.742188 Z M 75.765625 158.742188 "/></g></g></svg>