<svg width="31" height="31" viewBox="0 0 31 31" fill="none" xmlns="http://www.w3.org/2000/svg">
<g clip-path="url(#clip0_956_188)">
<path d="M15.5 0C6.95336 0 0 6.95336 0 15.5C0 24.0466 6.95336 31 15.5 31C24.0466 31 31 24.0466 31 15.5C31 6.95336 24.0466 0 15.5 0ZM15.5 28.9333C8.09294 28.9333 2.06667 22.9074 2.06667 15.5C2.06667 8.09261 8.09294 2.06667 15.5 2.06667C22.9071 2.06667 28.9333 8.09261 28.9333 15.5C28.9333 22.9074 22.9071 28.9333 15.5 28.9333Z" fill="#222B35"/>
<path d="M20.937 14.4667H16.5333V10.0631C16.5333 9.49279 16.0703 9.02972 15.5 9.02972C14.9297 9.02972 14.4667 9.49279 14.4667 10.0631V14.4667H10.0631C9.49279 14.4667 9.02972 14.9297 9.02972 15.5C9.02972 16.0703 9.49279 16.5333 10.0631 16.5333H14.4667V20.937C14.4667 21.5072 14.9297 21.9703 15.5 21.9703C16.0703 21.9703 16.5333 21.5072 16.5333 20.937V16.5333H20.937C21.5072 16.5333 21.9703 16.0703 21.9703 15.5C21.9703 14.9297 21.5072 14.4667 20.937 14.4667Z" fill="#222B35"/>
</g>
<defs>
<clipPath id="clip0_956_188">
<rect width="31" height="31" fill="white"/>
</clipPath>
</defs>
</svg>
