<svg xmlns="http://www.w3.org/2000/svg" xmlns:xlink="http://www.w3.org/1999/xlink" width="500" zoomAndPan="magnify" viewBox="0 0 375 374.999991" height="500" preserveAspectRatio="xMidYMid meet" version="1.0"><rect x="-37.5" width="450" fill="#ffffff" y="-37.499999" height="449.999989" fill-opacity="1"/><rect x="-37.5" width="450" fill="#ffffff" y="-37.499999" height="449.999989" fill-opacity="1"/><path fill="#222b35" d="M 187.5 375 C 291.054688 375 375 291.054688 375 187.5 C 375 83.945312 291.054688 0 187.5 0 C 83.945312 0 0 83.945312 0 187.5 C 0 291.054688 83.945312 375 187.5 375 Z M 187.5 87.5 L 187.5 132.953125 C 187.5 148.015625 199.710938 160.226562 214.773438 160.226562 L 269.320312 160.226562 L 269.320312 260.226562 C 269.320312 275.289062 257.109375 287.5 242.046875 287.5 L 132.953125 287.5 C 117.890625 287.5 105.683594 275.289062 105.683594 260.226562 L 105.683594 114.773438 C 105.683594 99.710938 117.890625 87.5 132.953125 87.5 Z M 205.679688 92.554688 L 205.679688 132.953125 C 205.679688 137.976562 209.753906 142.046875 214.773438 142.046875 L 263.003906 142.046875 C 262.03125 140.882812 260.960938 139.792969 259.792969 138.792969 L 207.613281 94.066406 C 206.988281 93.53125 206.347656 93.027344 205.679688 92.554688 Z M 151.136719 251.136719 L 151.136719 232.953125 L 223.863281 232.953125 L 223.863281 251.136719 Z M 196.589844 223.863281 L 196.589844 191.265625 L 208.34375 203.019531 L 221.203125 190.164062 L 193.929688 162.890625 C 190.378906 159.339844 184.621094 159.339844 181.070312 162.890625 L 153.796875 190.164062 L 166.65625 203.019531 L 178.410156 191.265625 L 178.410156 223.863281 Z M 196.589844 223.863281 " fill-opacity="1" fill-rule="evenodd"/></svg>