<svg xmlns="http://www.w3.org/2000/svg" xmlns:xlink="http://www.w3.org/1999/xlink" width="500" zoomAndPan="magnify" viewBox="0 0 375 374.999991" height="500" preserveAspectRatio="xMidYMid meet" version="1.0"><defs><clipPath id="ac6b09636e"><path d="M 187.5 0 C 83.945312 0 0 83.945312 0 187.5 C 0 291.054688 83.945312 375 187.5 375 C 291.054688 375 375 291.054688 375 187.5 C 375 83.945312 291.054688 0 187.5 0 Z M 187.5 0 " clip-rule="nonzero"/></clipPath><clipPath id="7324b4014e"><path d="M 66.660156 90.375 L 308.160156 90.375 L 308.160156 284.625 L 66.660156 284.625 Z M 66.660156 90.375 " clip-rule="nonzero"/></clipPath></defs><rect x="-37.5" width="450" fill="#ffffff" y="-37.499999" height="449.999989" fill-opacity="1"/><rect x="-37.5" width="450" fill="#ffffff" y="-37.499999" height="449.999989" fill-opacity="1"/><g clip-path="url(#ac6b09636e)"><rect x="-37.5" width="450" fill="#222b35" y="-37.499999" height="449.999989" fill-opacity="1"/></g><g clip-path="url(#7324b4014e)"><path fill="#ffffff" d="M 187.5 90.375 C 168.710938 90.375 149.820312 97.542969 135.492188 111.867188 C 124.839844 122.519531 118.382812 135.734375 115.644531 149.515625 C 87.84375 154.910156 66.753906 179.1875 66.753906 208.492188 C 66.753906 241.742188 93.878906 268.867188 127.125 268.867188 L 156 268.867188 C 156.523438 268.871094 157.039062 268.828125 157.554688 268.734375 C 158.066406 268.640625 158.566406 268.492188 159.050781 268.300781 C 159.535156 268.105469 159.992188 267.863281 160.429688 267.578125 C 160.867188 267.292969 161.269531 266.964844 161.644531 266.601562 C 162.015625 266.234375 162.347656 265.835938 162.640625 265.402344 C 162.929688 264.96875 163.179688 264.511719 163.378906 264.03125 C 163.582031 263.550781 163.734375 263.054688 163.835938 262.542969 C 163.9375 262.03125 163.992188 261.511719 163.992188 260.992188 C 163.992188 260.46875 163.9375 259.953125 163.835938 259.441406 C 163.734375 258.929688 163.582031 258.433594 163.378906 257.949219 C 163.179688 257.46875 162.929688 257.011719 162.640625 256.578125 C 162.347656 256.148438 162.015625 255.746094 161.644531 255.382812 C 161.269531 255.015625 160.867188 254.6875 160.429688 254.402344 C 159.992188 254.117188 159.535156 253.875 159.050781 253.683594 C 158.566406 253.488281 158.066406 253.34375 157.554688 253.246094 C 157.039062 253.152344 156.523438 253.109375 156 253.117188 L 127.125 253.117188 C 102.390625 253.117188 82.503906 233.230469 82.503906 208.492188 C 82.503906 185.132812 100.269531 166.101562 123.027344 164.035156 C 123.46875 163.992188 123.90625 163.914062 124.335938 163.796875 C 124.761719 163.679688 125.179688 163.527344 125.582031 163.339844 C 125.988281 163.148438 126.371094 162.929688 126.738281 162.675781 C 127.105469 162.425781 127.445312 162.140625 127.765625 161.832031 C 128.082031 161.519531 128.371094 161.183594 128.632812 160.824219 C 128.894531 160.464844 129.125 160.085938 129.324219 159.6875 C 129.519531 159.285156 129.679688 158.875 129.808594 158.449219 C 129.9375 158.019531 130.027344 157.585938 130.078125 157.144531 C 131.527344 144.664062 137.050781 132.539062 146.648438 122.941406 C 157.949219 111.640625 172.699219 106.125 187.5 106.125 C 202.296875 106.125 216.953125 111.628906 228.265625 122.941406 C 241.339844 136.011719 246.871094 153.773438 244.835938 170.761719 C 244.765625 171.316406 244.753906 171.871094 244.800781 172.425781 C 244.851562 172.980469 244.957031 173.527344 245.121094 174.058594 C 245.285156 174.589844 245.503906 175.101562 245.773438 175.589844 C 246.046875 176.074219 246.367188 176.527344 246.734375 176.945312 C 247.101562 177.367188 247.511719 177.742188 247.960938 178.074219 C 248.40625 178.40625 248.886719 178.6875 249.394531 178.917969 C 249.902344 179.148438 250.429688 179.320312 250.972656 179.441406 C 251.519531 179.558594 252.070312 179.621094 252.628906 179.621094 L 255.742188 179.621094 C 276.238281 179.621094 292.492188 195.875 292.492188 216.367188 C 292.492188 236.863281 276.238281 253.117188 255.742188 253.117188 L 218.996094 253.117188 C 218.472656 253.109375 217.957031 253.152344 217.445312 253.246094 C 216.929688 253.34375 216.433594 253.488281 215.949219 253.683594 C 215.464844 253.875 215.003906 254.117188 214.566406 254.402344 C 214.128906 254.6875 213.726562 255.015625 213.351562 255.382812 C 212.980469 255.746094 212.648438 256.148438 212.355469 256.578125 C 212.066406 257.011719 211.816406 257.46875 211.617188 257.949219 C 211.414062 258.433594 211.261719 258.929688 211.160156 259.441406 C 211.058594 259.953125 211.007812 260.46875 211.007812 260.992188 C 211.007812 261.511719 211.058594 262.03125 211.160156 262.542969 C 211.261719 263.054688 211.414062 263.550781 211.617188 264.03125 C 211.816406 264.511719 212.066406 264.96875 212.355469 265.402344 C 212.648438 265.835938 212.980469 266.234375 213.351562 266.601562 C 213.726562 266.964844 214.128906 267.292969 214.566406 267.578125 C 215.003906 267.863281 215.464844 268.105469 215.949219 268.300781 C 216.433594 268.492188 216.929688 268.636719 217.445312 268.734375 C 217.957031 268.828125 218.472656 268.871094 218.996094 268.867188 L 255.742188 268.867188 C 284.691406 268.867188 308.242188 245.316406 308.242188 216.367188 C 308.242188 189.046875 287.195312 166.808594 260.5 164.363281 C 260.625 145.363281 253.875 126.320312 239.421875 111.867188 C 225.109375 97.554688 206.285156 90.375 187.5 90.375 Z M 187.5 174.371094 C 184.871094 174.371094 183.484375 175.214844 182.167969 176.421875 L 153.292969 202.667969 C 149.960938 205.765625 150.019531 210.785156 152.800781 213.824219 C 155.585938 216.863281 160.902344 217.085938 163.957031 214.316406 L 179.625 200.042969 L 179.625 276.738281 C 179.625 281.089844 183.148438 284.613281 187.5 284.613281 C 191.847656 284.613281 195.371094 281.089844 195.371094 276.738281 L 195.371094 200.042969 L 211.039062 214.316406 C 214.09375 217.085938 219.25 216.710938 222.195312 213.824219 C 225.296875 210.785156 224.730469 205.46875 221.703125 202.667969 L 192.828125 176.421875 C 191.269531 174.992188 190.125 174.371094 187.5 174.371094 Z M 187.5 174.371094 " fill-opacity="1" fill-rule="nonzero"/></g></svg>